<?xml version="1.0" standalone="no"?><!DOCTYPE svg PUBLIC "-//W3C//DTD SVG 1.1//EN" "http://www.w3.org/Graphics/SVG/1.1/DTD/svg11.dtd"><svg t="1507548787442" class="icon" style="" viewBox="0 0 1024 1024" version="1.1" xmlns="http://www.w3.org/2000/svg" p-id="2225" xmlns:xlink="http://www.w3.org/1999/xlink" width="48" height="48"><defs><style type="text/css"></style></defs><path d="M512.24 219.424c-80.752 0-146.176 65.552-146.176 146.352 0 80.672 65.408 146.272 146.176 146.272s146.176-65.6 146.176-146.272c0-80.8-65.504-146.352-146.176-146.352z m0 219.488a73.184 73.184 0 0 1-73.088-73.136 73.088 73.088 0 1 1 146.208 0c-0.08 40.336-32.848 73.184-73.088 73.184l-0.032-0.048z" fill="#1296db" p-id="2226"></path><path d="M128.256 950.864h767.968a36.576 36.576 0 0 1 0 73.136H128.256a36.576 36.576 0 0 1 0-73.136z" fill="#1296db" p-id="2227"></path><path d="M512.24 73.136c171.28 0 310.736 130.016 310.848 289.76-0.016 58.944-18.768 115.408-54.256 163.296l-2 2.72-1.76 2.88c-0.336 0.576-0.672 1.168-1.056 1.76L512.24 833.12 260.464 533.472l-0.32-0.512-1.952-3.104-1.232-1.92-1.36-1.84c-35.456-48.272-54.192-104.736-54.192-163.248-0.016-159.744 139.424-289.712 310.832-289.712m0-73.136C300.192 0 128.256 162.256 128.256 362.832c0 76.688 25.344 147.952 68.384 206.544 2.128 3.328 4.016 6.672 6.576 9.648L464.704 890.24c13.056 16.304 30.288 24.112 47.568 24.112 17.248 0 34.416-7.808 47.488-24.112l261.552-311.216c2.448-2.976 4.416-6.224 6.288-9.296a347.536 347.536 0 0 0 68.608-206.816C896.08 162.256 724.272 0 512.24 0z" fill="#1296db" p-id="2228"></path></svg>