<?xml version="1.0" standalone="no"?><!DOCTYPE svg PUBLIC "-//W3C//DTD SVG 1.1//EN" "http://www.w3.org/Graphics/SVG/1.1/DTD/svg11.dtd"><svg t="1507776173843" class="icon" style="" viewBox="0 0 1103 1024" version="1.1" xmlns="http://www.w3.org/2000/svg" p-id="12042" xmlns:xlink="http://www.w3.org/1999/xlink" width="43.0859375" height="40"><defs><style type="text/css"></style></defs><path d="M1079.104 551.488l-55.744-51.136-64.448-63.36c0-12.032-9.024-21.696-20.096-21.696H409.728c-11.072 0-20.032 9.664-20.032 21.696l-48.576 79.68-179.52 34.816c-11.072 0-20.032 9.664-20.032 21.696v63.68c0 12.032 9.024 21.76 20.032 21.76h917.504c11.136 0 20.032-9.728 20.032-21.76v-63.68c0.064-11.968-8.896-21.696-20.032-21.696z" fill="#FFB600" p-id="12043"></path><path d="M1103.36 619.072c0 21.888-8.96 39.552-19.904 39.552H151.36c-10.944 0-19.904-17.664-19.904-39.552v-24.768c0-21.824 8.96-39.488 19.904-39.488h932.096c10.944 0 19.904 17.664 19.904 39.488v24.768z" fill="#FF9100" p-id="12044"></path><path d="M1073.92 522.88c-2.304-1.856-4.864-3.904-7.424-6.272L915.648 380.48l-6.656-5.504c-12.096-10.304-23.552-20.032-43.84-20.032H409.92c-30.656 0-42.752 20.224-54.464 39.872l-58.24 89.28-169.728 24.768-27.84 5.824c-27.904 7.808-99.52 50.88-99.52 76.16l0.064 61.696c0 33.216 102.336 35.264 103.36 35.264h94.272l1.6-8.064c10.112-50.048 54.656-86.4 105.728-86.4s95.616 36.288 105.792 86.4l1.6 8.064h332.992l1.536-8.192a107.904 107.904 0 0 1 211.904 0l1.536 8.192h71.552c32.704 0 58.24-17.6 58.24-40.128V548.8c0.256-12.48-8.192-19.328-16.384-25.92z m-3.456 124.8c0 9.408-16.32 20.032-38.208 20.032h-55.168A128.192 128.192 0 0 0 853.12 571.84c-58.56 0-109.376 39.872-123.904 95.872H428.8c-14.976-55.168-65.664-94.4-123.584-94.4s-108.544 39.232-123.584 94.4h-78.08c-31.552 0-76.352-8.832-83.264-16.256l-0.128-60.096c2.688-11.392 56.448-49.28 84.16-57.152l26.56-5.504 178.24-26.048 61.184-93.504 2.432-4.032c11.84-19.776 18.816-30.08 37.184-30.08h455.232c12.864 0 20.032 6.08 30.784 15.168 2.24 1.856 4.544 3.904 6.592 5.44l150.464 135.744c2.88 2.688 5.76 4.928 8.32 7.04 6.656 5.376 9.216 7.616 9.216 10.24v99.008z" fill="" p-id="12045"></path><path d="M305.984 601.344a94.208 94.208 0 1 0 94.144 94.144c0-51.904-42.24-94.144-94.144-94.144z m0 168.128a74.048 74.048 0 1 1 73.984-74.048c0 40.768-33.152 74.048-73.984 74.048z" fill="" p-id="12046"></path><path d="M305.984 662.784a32.768 32.768 0 0 0 0 65.344 32.64 32.64 0 0 0 0-65.344z m0 45.248a12.544 12.544 0 1 1 0-25.152 12.544 12.544 0 0 1 0 25.152zM851.2 601.344a94.208 94.208 0 1 0 94.144 94.144 94.336 94.336 0 0 0-94.144-94.144z m0 168.128a74.048 74.048 0 1 1 74.048-74.048 74.24 74.24 0 0 1-74.048 74.048z" fill="" p-id="12047"></path><path d="M851.2 662.784a32.64 32.64 0 1 0 0.128 65.408 32.64 32.64 0 0 0-0.128-65.408z m0 45.248a12.544 12.544 0 1 1 0-25.152 12.544 12.544 0 0 1 0 25.152z m-429.696-312.64l-74.048 102.784h284.928V395.2H428.8l-7.296 0.192z m10.304 19.904h180.544v62.72H386.688L431.296 416l0.512-0.704z m409.6-19.904l-172.672-0.192v102.976h286.976L849.536 402.24l-8.128-6.848zM688.832 478.08v-62.72h145.024l69.696 62.72h-214.72z" fill="" p-id="12048"></path></svg>