<?xml version="1.0" standalone="no"?><!DOCTYPE svg PUBLIC "-//W3C//DTD SVG 1.1//EN" "http://www.w3.org/Graphics/SVG/1.1/DTD/svg11.dtd"><svg t="1510295465400" class="icon" style="" viewBox="0 0 1194 1024" version="1.1" xmlns="http://www.w3.org/2000/svg" p-id="3399" xmlns:xlink="http://www.w3.org/1999/xlink" width="37.3125" height="32"><defs><style type="text/css"></style></defs><path d="M646.690133 586.274133l-163.362133-176.7424-52.224-53.0432c-2.6624 1.365333-3.9936 4.096-6.690133 6.826667L85.674667 779.298133V118.306133c2.696533-19.0464 17.408-31.300267 34.816-31.300266h461.9264L657.373867 0H74.990933C33.450667 0 0 33.9968 0 77.482667v843.264c0 42.154667 33.450667 77.482667 74.990933 77.482666h259.754667l313.275733-367.069866a33.792 33.792 0 0 0-1.365333-44.885334zM750.933333 324.266667a119.466667 119.466667 0 1 0 238.933334 0 119.466667 119.466667 0 0 0-238.933334 0z" p-id="3400" fill="#d4237a"></path><path d="M849.2032 0c-1.3312 2.730667-2.628267 6.826667-5.256533 8.192l-65.7408 79.0528h272.145066c18.432 0 32.8704 13.653333 34.2016 32.733867l1.297067 661.504-262.929067-291.703467a43.9296 43.9296 0 0 0-34.2016-16.384c-13.141333 0-22.357333 6.826667-34.167466 15.018667l-11.844267 9.557333 77.550933 85.879467c11.844267 12.288 11.844267 31.3344 1.3312 44.987733l-310.272 369.425067h583.748267c40.7552 0 73.6256-34.0992 73.6256-77.7216V76.356267C1168.6912 34.065067 1135.8208 0 1095.0656 0h-245.8624z" p-id="3401" fill="#d4237a"></path></svg>