<?xml version="1.0" standalone="no"?><!DOCTYPE svg PUBLIC "-//W3C//DTD SVG 1.1//EN" "http://www.w3.org/Graphics/SVG/1.1/DTD/svg11.dtd"><svg t="1510816874867" class="icon" style="" viewBox="0 0 1024 1024" version="1.1" xmlns="http://www.w3.org/2000/svg" p-id="1878" xmlns:xlink="http://www.w3.org/1999/xlink" width="32" height="32"><defs><style type="text/css"></style></defs><path d="M362.568953 816.920223c0 1.899814 1.899814 3.799629 3.799629 5.699443 13.298701 17.09833 32.296846 22.797774 53.194805 28.497217 28.497217 7.599258 64.593692 7.599258 93.090909 7.599258 28.497217 0 68.393321 0 94.990724-7.599258 20.897959-5.699443 36.096475-9.499072 49.395176-28.497217 5.699443-5.699443 7.599258-28.497217 5.699443-36.096475-1.899814-9.499072-5.699443-18.998145-11.398886-26.597403-1.899814-3.799629-3.799629-5.699443-5.699444-7.599257l-7.599258-9.499073-3.799629 9.499073c-15.198516 7.599258-96.890538 18.998145-121.588126 18.998144-26.597403 0-106.38961-7.599258-121.588126-18.998144l-3.799629-9.499073-7.599258 7.599258c-1.899814 1.899814-3.799629 5.699443-5.699443 7.599258-5.699443 7.599258-9.499072 17.09833-11.398887 26.597403-3.799629 7.599258-3.799629 22.797774 0 32.296846-3.799629 22.797774-7.599258 47.495362-11.398887 75.992578-3.799629 28.497217-5.699443 53.194805-5.699443 75.992579 3.799629-22.797774 7.599258-47.495362 11.398886-75.992579 3.799629-28.497217 5.699443-53.194805 5.699444-75.992578z m343.866419-486.352505c24.697588 7.599258 49.395176 7.599258 39.896104 30.397032-13.298701-3.799629-26.597403-7.599258-41.795918-11.398887l-9.499073 417.959183h5.699444c1.899814 0 3.799629 1.899814 3.799629 3.799629v132.987013c0 1.899814-1.899814 3.799629-3.799629 3.799629h-9.499073v28.497217c-1.899814 93.090909-235.576994 110.189239-324.868274 53.194806-24.697588-15.198516-39.896104-34.19666-39.896104-58.894249v-22.797774h-7.599258c-1.899814 0-3.799629-1.899814-3.799629-3.799629v-132.987013c0-1.899814 1.899814-3.799629 3.799629-3.799629h5.699443L315.073591 351.465677c-13.298701 3.799629-24.697588 5.699443-37.996289 9.499073-7.599258-20.897959 15.198516-22.797774 37.996289-28.497218v-20.897959h-5.699443c-1.899814 0-3.799629-1.899814-3.799629-3.799629v-132.987013c0-1.899814 1.899814-3.799629 3.799629-3.799629h3.799629V136.786642c0-9.499072 5.699443-24.697588 13.298701-37.996289 0-13.298701 15.198516-36.096475 22.797774-43.695733 7.599258-9.499072 15.198516-18.998145 24.697588-26.597403 1.899814-5.699443 9.499072-9.499072 15.198515-9.499072C400.565242 9.499072 413.863944 1.899814 423.363016 1.899814h172.883117c22.797774 0 56.994434 39.896104 70.293135 55.09462 5.699443 7.599258 15.198516 18.998145 22.797774 32.296846 13.298701 18.998145 20.897959 37.996289 20.897959 47.495362v30.397031h3.799629c1.899814 0 3.799629 1.899814 3.799629 3.799629v132.987013c0 1.899814-1.899814 3.799629-3.799629 3.799629h-5.699443l-1.899815 22.797774z m-370.463822 15.198516c1.899814 74.092764 3.799629 142.486085 3.799629 216.578849 0 9.499072 18.998145 11.398887 26.597403 13.298702v-93.090909c-3.799629-77.892393-17.09833-129.187384-30.397032-146.285715 0 1.899814 1.899814 5.699443 1.899815 7.599258 0 1.899814-1.899814 1.899814-1.899815 1.899815zM693.136671 93.090909V94.990724c-9.499072-15.198516-18.998145-28.497217-26.597403-37.99629-7.599258-7.599258-18.998145-22.797774-32.296846-36.096475l-3.799629-3.799629c5.699443-1.899814 13.298701 3.799629 17.098331 5.699444 9.499072 7.599258 18.998145 17.09833 24.697588 26.597402 7.599258 9.499072 24.697588 34.19666 22.797773 47.495362 0 0 0-1.899814-1.899814-3.799629zM343.570808 740.927644c5.699443 3.799629 17.09833-1.899814 24.697588-5.699444V588.942486c-7.599258-1.899814-24.697588-9.499072-26.597402-5.699443-1.899814 56.994434 0 104.489796 1.899814 157.684601z m336.267162 0c1.899814-55.09462 1.899814-102.589981 3.799629-157.684601-1.899814-5.699443-20.897959 1.899814-26.597403 5.699443v146.285714c5.699443 3.799629 17.09833 9.499072 22.797774 5.699444z m1.899814-178.582561c1.899814-77.892393 3.799629-150.085343 5.699443-226.077922-13.298701 13.298701-28.497217 66.493506-30.397031 146.285715v93.090909c5.699443-1.899814 24.697588-5.699443 24.697588-13.298702zM373.96784 412.25974c0 1.899814 1.899814 3.799629 3.799629 5.699444 1.899814 1.899814 3.799629 1.899814 5.699443 1.899814 83.591837-15.198516 169.083488-15.198516 252.675325 0h1.899814c0-1.899814 1.899814-1.899814 1.899815-3.799629 7.599258-45.595547 15.198516-77.892393 20.897959-121.588126 0-3.799629-1.899814-7.599258-5.699444-9.499072-100.690167-34.19666-201.380334-32.296846-302.0705 0v5.699443c7.599258 43.695733 13.298701 75.992579 20.897959 121.588126zM600.045762 56.994434c-3.799629 26.597403-7.599258 58.894249-11.398887 93.090909-3.799629 34.19666-5.699443 64.593692-5.699443 93.090909 3.799629-26.597403 7.599258-58.894249 11.398886-93.090909 3.799629-34.19666 5.699443-66.493506 5.699444-93.090909zM421.463201 56.994434c0 26.597403 1.899814 58.894249 5.699444 93.090909 3.799629 34.19666 7.599258 64.593692 11.398887 93.090909 0-26.597403-1.899814-58.894249-5.699444-93.090909C429.062459 115.888683 425.26283 83.591837 421.463201 56.994434z m258.374769 911.910946c0-22.797774-1.899814-47.495362-5.699444-75.992579-3.799629-28.497217-7.599258-53.194805-11.398887-75.992578 0 22.797774 1.899814 47.495362 5.699444 75.992578 1.899814 26.597403 7.599258 53.194805 11.398887 75.992579z" fill="#d81e06" p-id="1879" class=""></path></svg>